<?xml version="1.0" standalone="no"?>
<!DOCTYPE svg PUBLIC "-//W3C//DTD SVG 20010904//EN"
 "http://www.w3.org/TR/2001/REC-SVG-20010904/DTD/svg10.dtd">
<svg version="1.0" xmlns="http://www.w3.org/2000/svg"
 width="800.000000pt" height="200.000000pt" viewBox="0 0 800.000000 200.000000"
 preserveAspectRatio="xMidYMid meet">
<metadata>
Created by potrace 1.16, written by Peter Selinger 2001-2019
</metadata>
<g transform="translate(0.000000,200.000000) scale(0.100000,-0.100000)"
fill="#000000" stroke="none">
<path d="M407 1571 c-93 -31 -152 -82 -194 -169 -20 -43 -25 -68 -25 -129 1
-149 64 -224 278 -328 77 -38 141 -76 153 -91 23 -29 28 -85 11 -128 -32 -84
-194 -94 -350 -20 -100 47 -110 42 -110 -58 0 -63 3 -72 28 -97 85 -85 340
-110 479 -46 67 30 138 97 171 160 24 44 27 62 27 145 0 79 -4 102 -22 136
-37 70 -114 129 -257 198 -72 35 -139 73 -150 84 -10 12 -21 41 -23 65 -5 39
-1 48 25 78 30 34 31 34 114 33 72 0 93 -5 157 -34 71 -33 74 -33 87 -15 9 11
14 44 14 82 0 56 -3 67 -26 88 -41 38 -109 57 -224 61 -84 3 -116 0 -163 -15z"/>
<path d="M4264 1549 c-18 -20 -19 -46 -22 -523 -2 -425 0 -504 12 -521 13 -17
26 -20 106 -20 79 0 94 3 106 19 11 16 14 63 14 218 l0 198 169 0 169 0 12 30
c17 42 8 129 -16 147 -13 9 -60 13 -176 13 l-158 0 0 135 0 135 174 0 c169 0
175 1 190 22 18 26 22 119 6 149 -10 18 -24 19 -289 19 -270 0 -278 -1 -297
-21z"/>
<path d="M1323 1309 c-169 -21 -288 -130 -328 -301 -39 -167 6 -364 102 -449
112 -97 321 -121 472 -54 168 76 253 281 210 510 -39 213 -214 325 -456 294z
m158 -196 c16 -10 39 -38 52 -63 19 -39 22 -61 22 -160 0 -100 -3 -120 -23
-158 -33 -61 -72 -82 -156 -82 -66 0 -70 1 -106 38 -47 47 -65 120 -57 237 7
120 52 193 127 208 40 8 109 -2 141 -20z"/>
<path d="M3259 1309 c-55 -8 -100 -30 -156 -75 -23 -19 -44 -34 -47 -34 -3 0
-6 15 -6 34 0 48 -29 66 -102 66 -95 0 -88 44 -88 -559 0 -479 2 -530 17 -542
10 -9 42 -14 93 -14 113 0 110 -5 110 190 0 89 3 165 7 168 3 4 21 -5 40 -19
72 -55 168 -71 260 -44 141 42 233 208 233 420 0 279 -145 443 -361 409z m64
-209 c41 -32 62 -102 62 -205 0 -156 -49 -235 -144 -235 -50 0 -95 25 -138 78
-20 25 -22 38 -23 152 l0 126 43 41 c56 54 73 62 128 63 32 0 54 -6 72 -20z"/>
<path d="M5210 1310 c-78 -10 -183 -47 -214 -75 -14 -13 -28 -35 -32 -50 -8
-33 12 -104 32 -112 8 -3 47 9 87 28 55 25 89 34 149 37 119 7 149 -13 161
-108 7 -57 3 -60 -86 -60 -216 -1 -348 -72 -378 -204 -54 -243 239 -392 462
-235 28 20 39 16 39 -12 0 -26 31 -39 92 -39 94 0 90 -19 86 340 -3 303 -4
317 -25 357 -56 104 -198 155 -373 133z m180 -549 l0 -69 -47 -31 c-37 -25
-57 -31 -100 -31 -68 0 -103 29 -103 85 0 81 50 111 193 114 l57 1 0 -69z"/>
<path d="M6147 1306 c-44 -16 -103 -59 -117 -87 -15 -27 -30 -14 -30 26 0 25
-6 37 -21 46 -30 16 -148 7 -160 -12 -5 -8 -9 -180 -9 -391 l0 -377 22 -15
c26 -18 131 -22 172 -6 l26 10 0 241 0 242 33 43 c17 24 50 53 72 63 35 17 47
19 89 9 65 -14 76 0 76 99 0 81 -18 113 -64 113 -13 0 -30 2 -38 5 -7 2 -30
-2 -51 -9z"/>
<path d="M6801 1309 c-45 -9 -124 -54 -156 -89 -26 -29 -35 -25 -35 14 0 47
-29 66 -98 66 -100 0 -92 34 -92 -411 l0 -389 26 -10 c41 -16 146 -12 172 6
22 15 22 18 22 265 0 243 1 251 23 280 28 40 95 79 133 79 16 0 40 -7 53 -16
46 -33 51 -65 51 -334 0 -301 -4 -290 115 -290 119 0 115 -11 115 293 l0 253
33 31 c52 48 79 63 118 63 47 0 85 -30 99 -78 5 -21 10 -146 10 -284 0 -244 0
-247 22 -262 26 -18 131 -22 172 -6 l26 10 0 279 c0 164 -5 301 -11 331 -25
119 -126 201 -245 203 -79 0 -124 -16 -201 -75 l-65 -49 -34 39 c-57 67 -157
99 -253 81z"/>
<path d="M1968 1293 c-10 -2 -21 -15 -24 -27 -3 -13 -4 -151 -2 -307 3 -272 4
-286 26 -335 47 -103 128 -156 243 -156 76 -1 151 28 211 80 39 35 48 33 48
-9 0 -45 23 -59 95 -59 101 0 95 -28 95 410 l0 379 -22 15 c-15 11 -45 16 -88
16 -115 0 -110 12 -110 -284 l0 -253 -49 -46 c-92 -86 -192 -73 -220 30 -6 22
-11 140 -11 280 0 239 0 242 -22 257 -22 15 -126 21 -170 9z"/>
<path d="M3816 719 c-52 -45 -57 -165 -9 -213 49 -49 160 -43 203 11 31 39 29
152 -4 190 -21 24 -32 28 -93 31 -62 4 -73 1 -97 -19z"/>
</g>
</svg>
